<?xml version="1.0" encoding="UTF-8" standalone="no"?>
<!-- Created with Inkscape (http://www.inkscape.org/) -->

<svg
   width="330mm"
   height="330mm"
   viewBox="0 0 330 330"
   version="1.1"
   id="svg1"
   xml:space="preserve"
   inkscape:version="1.4 (e7c3feb100, 2024-10-09)"
   sodipodi:docname="favicon.svg"
   xmlns:inkscape="http://www.inkscape.org/namespaces/inkscape"
   xmlns:sodipodi="http://sodipodi.sourceforge.net/DTD/sodipodi-0.dtd"
   xmlns="http://www.w3.org/2000/svg"
   xmlns:svg="http://www.w3.org/2000/svg"><sodipodi:namedview
     id="namedview1"
     pagecolor="#ffffff"
     bordercolor="#000000"
     borderopacity="0.25"
     inkscape:showpageshadow="2"
     inkscape:pageopacity="0.0"
     inkscape:pagecheckerboard="0"
     inkscape:deskcolor="#d1d1d1"
     inkscape:document-units="mm"
     inkscape:zoom="0.33228816"
     inkscape:cx="669.59954"
     inkscape:cy="1020.1989"
     inkscape:window-width="1745"
     inkscape:window-height="910"
     inkscape:window-x="0"
     inkscape:window-y="0"
     inkscape:window-maximized="1"
     inkscape:current-layer="layer1" /><defs
     id="defs1" /><g
     inkscape:label="Layer 1"
     inkscape:groupmode="layer"
     id="layer1"
     transform="translate(-308.74744,-140.37736)"><rect
       style="fill:#000000;stroke:#000000;stroke-width:0.399462;stroke-linecap:round;stroke-linejoin:round"
       id="rect2"
       width="329.60052"
       height="329.60052"
       x="308.94717"
       y="140.57709"
       ry="111.47453" /><rect
       style="fill:#ffffff;stroke-width:0.230548;stroke-linecap:round;stroke-linejoin:round"
       id="rect1"
       width="258.21619"
       height="93.292519"
       x="343.54257"
       y="260.3432"
       ry="0" /><path
       style="fill:#000000;stroke-width:0.797325"
       d="m 362.87604,374.29586 c -9.44337,-2.45533 -16.4553,-11.76386 -18.87137,-21.23442 l -0.79514,-3.11681 v -44.3836 -43.11993 l 0.79853,-3.13022 c 2.40037,-9.40941 -1.58904,-19.23858 7.99026,-21.68229 l 14.12874,-0.34962 h 107.87037 107.87038 l 3.13021,0.79853 c 9.56773,2.44079 15.20128,11.66565 17.64203,21.23338 l 0.79853,3.13022 v 43.11993 44.3836 l -0.79082,3.09407 c -2.45624,9.60991 -8.07596,18.821 -17.68589,21.27723 l -3.09406,0.79082 -108.01102,-0.0194 -108.01101,-0.0194 z m 231.57843,-24.42895 c 4.62368,-0.8063 7.25295,-2.36984 7.23731,-4.30378 -0.0658,-8.13189 -31.60556,-23.3191 -83.81487,-40.35899 l -4.6411,-1.51475 -0.0725,-0.96281 c -1.20249,-15.98212 -12.2049,-29.97744 -27.36244,-34.80565 -4.20784,-1.34034 -7.24237,-1.8129 -11.66286,-1.81622 -8.00154,-0.006 -14.99978,2.09707 -21.76876,6.54182 -3.11955,2.0484 -7.80593,6.50854 -9.86742,9.39105 l -1.46932,2.0545 -3.53292,-0.80078 c -13.32916,-3.02124 -30.19712,-6.28148 -42.54153,-8.22243 -29.02607,-4.56386 -47.63811,-4.60826 -50.98788,-0.12162 -5.60205,7.50335 29.32592,24.73786 88.2573,43.54883 l 5.3443,1.7059 1.12511,2.45395 c 5.17673,11.29081 16.20646,19.64781 28.90882,21.90362 3.47779,0.61762 9.67577,0.60589 12.99151,-0.0246 5.49606,-1.04506 10.4123,-3.02843 15.04184,-6.06835 l 2.65094,-1.7407 1.42538,0.29905 c 0.78396,0.16447 4.77963,1.05205 8.87927,1.97238 28.63717,6.42886 53.9073,10.45127 71.58542,11.39477 3.71639,0.19834 11.83905,-0.10052 14.27434,-0.52519 z M 526.03399,327.3486 c -15.36498,-1.71114 -38.46068,-6.60532 -59.2075,-12.54659 -32.79083,-9.39033 -56.60011,-18.90085 -61.84137,-24.7023 -1.18953,-1.31667 -1.20538,-1.39288 -0.48122,-2.31349 1.6369,-2.08099 12.94892,-1.7379 28.39888,0.86132 2.6601,0.44752 4.88383,0.86097 4.94163,0.91876 0.0578,0.0578 -0.37972,1.56013 -0.97229,3.33849 -1.10912,3.32865 -2.0905,8.28273 -1.92531,9.71907 0.10784,0.93772 -0.22534,0.78798 8.53189,3.83439 18.56401,6.45794 41.99076,12.71445 60.33427,16.11331 2.0885,0.38698 4.07909,0.76999 4.42353,0.85114 0.52727,0.12424 0.74234,-0.0815 1.36057,-1.30151 1.06492,-2.10153 2.53969,-6.78652 2.95508,-9.38756 0.19764,-1.23762 0.4497,-2.3562 0.5601,-2.48572 0.22687,-0.26613 2.13757,0.39273 8.39696,2.89545 11.86092,4.74241 19.12379,8.75711 20.93111,11.57008 0.69982,1.08922 0.40333,1.78942 -1.01693,2.40156 -0.98728,0.42552 -2.07588,0.52021 -6.52912,0.56791 -3.10879,0.0333 -6.81502,-0.10654 -8.86028,-0.33431 z"
       id="path1"
       sodipodi:nodetypes="sscccsccccsscccsscccsssscsscsscsssscsscscssssssssssssssssssssssss" /></g></svg>
